<?xml version="1.0" encoding="utf-8"?>
<!-- Generator: Adobe Illustrator 15.0.0, SVG Export Plug-In . SVG Version: 6.00 Build 0)  -->
<!DOCTYPE svg PUBLIC "-//W3C//DTD SVG 1.1//EN" "http://www.w3.org/Graphics/SVG/1.1/DTD/svg11.dtd">
<svg version="1.1" id="Layer_1" xmlns="http://www.w3.org/2000/svg" xmlns:xlink="http://www.w3.org/1999/xlink" x="0px" y="0px"
	 width="52.422px" height="46.752px" viewBox="0 0 52.422 46.752" enable-background="new 0 0 52.422 46.752" xml:space="preserve">
<path fill="#00ACC1" stroke="#FFFFFF" stroke-width="2" stroke-miterlimit="10" d="M2.231,31.746h2.825
	c1.901,8.958,11.91,13.95,21.156,13.95c9.262,0,19.257-5.002,21.155-13.95h2.824c0.931,0,1.399-1.127,0.739-1.786l-5.846-5.845
	c-0.408-0.407-1.069-0.407-1.478,0l-5.845,5.845c-0.659,0.659-0.192,1.786,0.737,1.786h3.066c-1.771,4.736-7.41,7.55-12.565,8.198
	V23.376h4.533c0.578,0,1.047-0.468,1.047-1.046v-3.487c0-0.578-0.469-1.047-1.047-1.047h-4.533v-0.477
	c3.251-1.149,5.58-4.248,5.58-7.894c0-4.555-3.698-8.305-8.251-8.37c-4.677-0.065-8.49,3.708-8.49,8.37
	c0,3.645,2.33,6.744,5.581,7.894v0.477h-4.534c-0.578,0-1.046,0.468-1.046,1.047v3.487c0,0.578,0.466,1.046,1.046,1.046h4.534
	v16.568c-5.138-0.646-10.797-3.46-12.567-8.198h3.064c0.935,0,1.399-1.127,0.741-1.786l-5.845-5.845
	c-0.408-0.407-1.07-0.407-1.479,0L1.49,29.96C0.832,30.619,1.3,31.746,2.231,31.746z M26.212,6.636c1.535,0,2.79,1.253,2.79,2.79
	c0,1.538-1.255,2.791-2.79,2.791c-1.539,0-2.79-1.253-2.79-2.791C23.423,7.888,24.673,6.636,26.212,6.636z"/>
</svg>
