<?xml version="1.0" encoding="utf-8"?>
<!-- Generator: Adobe Illustrator 15.0.0, SVG Export Plug-In . SVG Version: 6.00 Build 0)  -->
<!DOCTYPE svg PUBLIC "-//W3C//DTD SVG 1.1//EN" "http://www.w3.org/Graphics/SVG/1.1/DTD/svg11.dtd">
<svg version="1.1" id="Layer_1" xmlns="http://www.w3.org/2000/svg" xmlns:xlink="http://www.w3.org/1999/xlink" x="0px" y="0px"
	 width="52.423px" height="46.752px" viewBox="341.038 427.248 52.423 46.752"
	 enable-background="new 341.038 427.248 52.423 46.752" xml:space="preserve">
<path d="M342.136,459.391h2.958c1.991,9.38,12.472,14.609,22.156,14.609c9.699,0,20.166-5.239,22.154-14.609h2.959
	c0.976,0,1.465-1.181,0.774-1.871l-6.12-6.121c-0.429-0.427-1.122-0.427-1.55,0l-6.12,6.121c-0.691,0.69-0.202,1.871,0.773,1.871
	h3.21c-1.854,4.959-7.759,7.906-13.159,8.585v-17.352h4.748c0.605,0,1.096-0.49,1.096-1.096v-3.652c0-0.605-0.491-1.096-1.096-1.096
	h-4.748v-0.5c3.403-1.203,5.844-4.449,5.844-8.266c0-4.77-3.871-8.699-8.641-8.766c-4.899-0.068-8.892,3.883-8.892,8.766
	c0,3.816,2.44,7.063,5.845,8.266v0.5h-4.749c-0.605,0-1.096,0.49-1.096,1.096v3.652c0,0.605,0.49,1.096,1.096,1.096h4.749v17.352
	c-5.382-0.677-11.307-3.624-13.16-8.585h3.209c0.977,0,1.465-1.181,0.774-1.871l-6.12-6.121c-0.428-0.427-1.122-0.427-1.55,0
	l-6.121,6.121C340.671,458.21,341.16,459.391,342.136,459.391z M367.25,433.093c1.61,0,2.922,1.311,2.922,2.922
	c0,1.61-1.312,2.922-2.922,2.922c-1.611,0-2.922-1.312-2.922-2.922C364.328,434.403,365.639,433.093,367.25,433.093z"/>
</svg>
