<?xml version="1.0" encoding="utf-8"?>
<!-- Generator: Adobe Illustrator 15.0.0, SVG Export Plug-In . SVG Version: 6.00 Build 0)  -->
<!DOCTYPE svg PUBLIC "-//W3C//DTD SVG 1.1//EN" "http://www.w3.org/Graphics/SVG/1.1/DTD/svg11.dtd">
<svg version="1.1" id="Layer_1" xmlns="http://www.w3.org/2000/svg" xmlns:xlink="http://www.w3.org/1999/xlink" x="0px" y="0px"
	 width="24.081px" height="29.819px" viewBox="587.919 762.181 24.081 29.819"
	 enable-background="new 587.919 762.181 24.081 29.819" xml:space="preserve">
<path fill="#C44545" stroke="#FFFFFF" stroke-width="2" stroke-miterlimit="10" d="M600.044,764.584
	c0.042,0.247,0.85,4.986,0.85,6.797c0,2.761-1.468,4.729-3.637,5.52l0.681,12.565c0.037,0.724-0.537,1.335-1.266,1.335h-3.378
	c-0.724,0-1.303-0.606-1.267-1.335l0.682-12.565c-2.175-0.791-3.637-2.766-3.637-5.52c0-1.815,0.808-6.55,0.85-6.797
	c0.169-1.072,2.391-1.088,2.527,0.058v7.451c0.07,0.18,0.798,0.17,0.845,0c0.073-1.335,0.416-7.345,0.423-7.483
	c0.173-1.098,2.358-1.098,2.526,0c0.012,0.143,0.349,6.148,0.424,7.483c0.046,0.17,0.779,0.18,0.842,0v-7.451
	C597.646,763.501,599.876,763.512,600.044,764.584z M606.335,779.661l-0.793,9.769c-0.063,0.737,0.522,1.371,1.262,1.371h2.955
	c0.702,0,1.267-0.564,1.267-1.267v-24.486c0-0.697-0.564-1.267-1.267-1.267C605.406,763.781,598.075,773.2,606.335,779.661
	L606.335,779.661z"/>
</svg>
